<svg width="96" height="96" xmlns="http://www.w3.org/2000/svg" xmlns:xlink="http://www.w3.org/1999/xlink" xml:space="preserve" overflow="hidden"><g transform="translate(-478 -50)"><path d="M534 61C534 65.4183 530.418 69 526 69 521.582 69 518 65.4183 518 61 518 56.5817 521.582 53 526 53 530.418 53 534 56.5817 534 61Z"/><path d="M547.8 102.2 542.2 78.4C542 77.6 541.6 76.8 541 76.2 538.6 74.2 535.8 72.8 532.6 71.8 530.4 71.4 528.2 71 526 71 523.8 71 521.6 71.4 519.4 72 516.2 72.8 513.4 74.4 511 76.4 510.4 77 510 77.8 509.8 78.6L504.2 102.4C504.2 102.6 504 103 504 103.4 504 105.6 505.8 107.4 508 107.4 509.8 107.4 511.4 106 511.8 104.4L516 87 516 143 524 143 524 107 528 107 528 143 536 143 536 86.8 540.2 104.2C540.6 105.8 542.2 107.2 544 107.2 546.2 107.2 548 105.4 548 103.2 548 102.8 547.8 102.4 547.8 102.2Z"/></g></svg>